<svg xmlns="http://www.w3.org/2000/svg" width="16.198" height="16.198" viewBox="0 0 16.198 16.198">
  <path id="Path_90" data-name="Path 90" d="M1287.766,1233.961c0,1.975.011,3.951,0,5.926-.011,1.529-.7,2.219-2.235,2.223q-5.862.017-11.725,0c-1.533,0-2.218-.695-2.223-2.232q-.016-5.862,0-11.725c0-1.531.7-2.219,2.232-2.224q5.862-.016,11.725,0c1.531,0,2.215.7,2.226,2.233C1287.776,1230.1,1287.766,1232.028,1287.766,1233.961Zm-3.2-1.17c.479,2.718-.522,5.1-2.847,5.761-4.891,1.39-7-1-7.114-5.841l-1.043-.205c0,2.359.014,4.582-.008,6.8-.007.7.361.829.95.828,3.447-.011,6.895-.018,10.342,0,.711,0,.959-.264.948-.963-.033-2.1-.02-4.2-.034-6.305,0-.1-.088-.209-.163-.374Zm-1.617,1.255a3.237,3.237,0,0,0-3.236-3.285,3.226,3.226,0,1,0,3.236,3.285Zm1.3-3.116c1.307.369,1.56-.278,1.572-1.451.011-1.139-.2-1.644-1.5-1.618-1.224.024-1.707.276-1.651,1.61C1282.713,1230.647,1282.933,1231.285,1284.244,1230.931Z" transform="translate(-1271.571 -1225.92)" fill="#e0e1e3"/>
</svg>
