<svg xmlns="http://www.w3.org/2000/svg" xmlns:xlink="http://www.w3.org/1999/xlink" width="14" height="20" viewBox="0 0 14 20">
  <defs>
    <clipPath id="clip-path">
      <path id="Path_1690" data-name="Path 1690" d="M12-22a7,7,0,0,0-7,7C5-9.75,12-2,12-2s7-7.75,7-13A7,7,0,0,0,12-22Zm0,9.5A2.5,2.5,0,0,1,9.5-15,2.5,2.5,0,0,1,12-17.5,2.5,2.5,0,0,1,14.5-15,2.5,2.5,0,0,1,12-12.5Z" fill="#ce4f1b"/>
    </clipPath>
    <clipPath id="clip-path-2">
      <rect id="Rectangle_266" data-name="Rectangle 266" width="24" height="24" transform="translate(0 -24)" fill="#ce4f1b"/>
    </clipPath>
    <clipPath id="clip-path-3">
      <path id="Path_1689" data-name="Path 1689" d="M0-24H24V0H0Z" fill="#ce4f1b" clip-rule="evenodd"/>
    </clipPath>
    <clipPath id="clip-path-4">
      <path id="Path_1688" data-name="Path 1688" d="M5-2H19V-22H5Z" fill="#ce4f1b"/>
    </clipPath>
  </defs>
  <g id="Group_1811" data-name="Group 1811" transform="translate(-5 22)" clip-path="url(#clip-path)">
    <g id="Group_1810" data-name="Group 1810" clip-path="url(#clip-path-2)">
      <g id="Group_1809" data-name="Group 1809" clip-path="url(#clip-path-3)">
        <g id="Group_1808" data-name="Group 1808" clip-path="url(#clip-path-4)">
          <path id="Path_1687" data-name="Path 1687" d="M-5-29H29V5H-5Z" fill="#ce4f1b"/>
        </g>
      </g>
    </g>
  </g>
</svg>
